# xmcd
#
# Track frame offsets: 
#        150
#        11837
#        28806
#        41172
#        57964
#        75433
#        89429
#        102358
#        119675
#        142531
#        180488
#        222838
#        239268
#        257292
#        280803
#        307995
#
# Disc length: 4344 seconds
#
# Revision: 1
# Processed by: cddbd v1.5.2PL0 Copyright (c) Steve Scherf et al.
# Submitted via: ExactAudioCopy v1.0b3
#
DISCID=d110f610
DTITLE=Fleetwood Mac - Madison Blues [Disc 1]
DYEAR=2003
DGENRE=Blues
TTITLE0=Christine Perfect Band - Hey Baby
TTITLE1=Christine Perfect Band - It's You I Miss
TTITLE2=Christine Perfect Band - Gone Into The Sun
TTITLE3=Christine Perfect Band - Tell Me You Need Me
TTITLE4=Crazy About You (Can't Hold Out Much Longer)
TTITLE5=Down At The Crown
TTITLE6=Tell Me All The Things You Do
TTITLE7=Station Man
TTITLE8=Purple Dancer
TTITLE9=Station Man
TTITLE10=Crazy About You (Can't Hold Out Much Longer)
TTITLE11=One Together
TTITLE12=I Can't Stop Loving Her
TTITLE13=Lonely Without You
TTITLE14=Tell Me All The Things You Do
TTITLE15=Jewel-Eyed Judy
EXTD=YEAR: 2003 ID3G: 0
EXTT0=
EXTT1=
EXTT2=
EXTT3=
EXTT4=
EXTT5=
EXTT6=
EXTT7=
EXTT8=
EXTT9=
EXTT10=
EXTT11=
EXTT12=
EXTT13=
EXTT14=
EXTT15=
PLAYORDER=
